# Blender v2.78 (sub 0) OBJ File: 'left.blend'
# www.blender.org
mtllib left.mtl
o Cube_Cube.001
v -0.082543 -0.017237 -0.030284
v -0.082543 3.862763 -0.030284
v -0.082543 -0.017237 0.069716
v -0.082543 3.862763 0.069716
v -0.162543 -0.017237 -0.030284
v -0.162543 3.862763 -0.030284
v -0.162543 -0.017237 0.069716
v -0.162543 3.862763 0.069716
vn 1.0000 0.0000 0.0000
vn 0.0000 0.0000 1.0000
vn -1.0000 0.0000 0.0000
vn 0.0000 0.0000 -1.0000
vn 0.0000 -1.0000 0.0000
vn 0.0000 1.0000 0.0000
usemtl None
s off
f 1//1 2//1 4//1 3//1
f 3//2 4//2 8//2 7//2
f 7//3 8//3 6//3 5//3
f 5//4 6//4 2//4 1//4
f 3//5 7//5 5//5 1//5
f 8//6 4//6 2//6 6//6
o Plane
v 0.000000 2.207163 -1.010757
v -0.000000 4.207046 -0.989126
v 0.000000 2.185532 0.989126
v -0.000000 4.185415 1.010757
vt 0.0001 0.0001
vt 0.9999 0.0001
vt 0.9999 0.9999
vt 0.0001 0.9999
vn 1.0000 0.0000 -0.0000
usemtl Material.001
s off
f 9/1/7 10/2/7 12/3/7 11/4/7
