# Blender v2.78 (sub 0) OBJ File: 'right.blend'
# www.blender.org
mtllib right.mtl
o Cylinder
v -0.084079 -0.018726 -0.040000
v -0.084079 3.641274 -0.040000
v -0.074324 -0.018726 -0.039231
v -0.074324 3.641274 -0.039231
v -0.064945 -0.018726 -0.036955
v -0.064945 3.641274 -0.036955
v -0.056300 -0.018726 -0.033259
v -0.056300 3.641274 -0.033259
v -0.048724 -0.018726 -0.028284
v -0.048724 3.641274 -0.028284
v -0.042505 -0.018726 -0.022223
v -0.042505 3.641274 -0.022223
v -0.037885 -0.018726 -0.015307
v -0.037885 3.641274 -0.015307
v -0.035040 -0.018726 -0.007804
v -0.035040 3.641274 -0.007804
v -0.034079 -0.018726 -0.000000
v -0.034079 3.641274 -0.000000
v -0.035040 -0.018726 0.007804
v -0.035040 3.641274 0.007804
v -0.037885 -0.018726 0.015307
v -0.037885 3.641274 0.015307
v -0.042505 -0.018726 0.022223
v -0.042505 3.641274 0.022223
v -0.048724 -0.018726 0.028284
v -0.048724 3.641274 0.028284
v -0.056300 -0.018726 0.033259
v -0.056300 3.641274 0.033259
v -0.064945 -0.018726 0.036955
v -0.064945 3.641274 0.036955
v -0.074324 -0.018726 0.039231
v -0.074324 3.641274 0.039231
v -0.084079 -0.018726 0.040000
v -0.084079 3.641274 0.040000
v -0.093834 -0.018726 0.039231
v -0.093834 3.641274 0.039231
v -0.103213 -0.018726 0.036955
v -0.103213 3.641274 0.036955
v -0.111858 -0.018726 0.033259
v -0.111858 3.641274 0.033259
v -0.119434 -0.018726 0.028284
v -0.119434 3.641274 0.028284
v -0.125652 -0.018726 0.022223
v -0.125652 3.641274 0.022223
v -0.130273 -0.018726 0.015307
v -0.130273 3.641274 0.015307
v -0.133118 -0.018726 0.007804
v -0.133118 3.641274 0.007804
v -0.134079 -0.018726 -0.000000
v -0.134079 3.641274 -0.000000
v -0.133118 -0.018726 -0.007804
v -0.133118 3.641274 -0.007804
v -0.130273 -0.018726 -0.015307
v -0.130273 3.641274 -0.015307
v -0.125652 -0.018726 -0.022223
v -0.125652 3.641274 -0.022223
v -0.119434 -0.018726 -0.028284
v -0.119434 3.641274 -0.028284
v -0.111857 -0.018726 -0.033259
v -0.111857 3.641274 -0.033259
v -0.103213 -0.018726 -0.036955
v -0.103213 3.641274 -0.036955
v -0.093833 -0.018726 -0.039231
v -0.093833 3.641274 -0.039231
vn 0.0785 0.0000 -0.9969
vn 0.2358 0.0000 -0.9718
vn 0.3932 0.0000 -0.9195
vn 0.5488 0.0000 -0.8359
vn 0.6980 0.0000 -0.7161
vn 0.8315 0.0000 -0.5555
vn 0.9350 0.0000 -0.3546
vn 0.9925 0.0000 -0.1222
vn 0.9925 0.0000 0.1222
vn 0.9350 0.0000 0.3546
vn 0.8315 0.0000 0.5555
vn 0.6980 0.0000 0.7161
vn 0.5488 0.0000 0.8359
vn 0.3932 0.0000 0.9195
vn 0.2358 0.0000 0.9718
vn 0.0785 0.0000 0.9969
vn -0.0785 0.0000 0.9969
vn -0.2358 0.0000 0.9718
vn -0.3932 0.0000 0.9195
vn -0.5488 0.0000 0.8359
vn -0.6980 0.0000 0.7161
vn -0.8315 0.0000 0.5555
vn -0.9350 0.0000 0.3546
vn -0.9925 0.0000 0.1222
vn -0.9925 0.0000 -0.1222
vn -0.9350 0.0000 -0.3546
vn -0.8315 0.0000 -0.5555
vn -0.6980 0.0000 -0.7161
vn -0.5488 0.0000 -0.8359
vn -0.3932 0.0000 -0.9195
vn 0.0000 1.0000 -0.0000
vn -0.2358 0.0000 -0.9718
vn -0.0785 0.0000 -0.9969
vn 0.0000 -1.0000 0.0000
usemtl None
s off
f 1//1 2//1 4//1 3//1
f 3//2 4//2 6//2 5//2
f 5//3 6//3 8//3 7//3
f 7//4 8//4 10//4 9//4
f 9//5 10//5 12//5 11//5
f 11//6 12//6 14//6 13//6
f 13//7 14//7 16//7 15//7
f 15//8 16//8 18//8 17//8
f 17//9 18//9 20//9 19//9
f 19//10 20//10 22//10 21//10
f 21//11 22//11 24//11 23//11
f 23//12 24//12 26//12 25//12
f 25//13 26//13 28//13 27//13
f 27//14 28//14 30//14 29//14
f 29//15 30//15 32//15 31//15
f 31//16 32//16 34//16 33//16
f 33//17 34//17 36//17 35//17
f 35//18 36//18 38//18 37//18
f 37//19 38//19 40//19 39//19
f 39//20 40//20 42//20 41//20
f 41//21 42//21 44//21 43//21
f 43//22 44//22 46//22 45//22
f 45//23 46//23 48//23 47//23
f 47//24 48//24 50//24 49//24
f 49//25 50//25 52//25 51//25
f 51//26 52//26 54//26 53//26
f 53//27 54//27 56//27 55//27
f 55//28 56//28 58//28 57//28
f 57//29 58//29 60//29 59//29
f 59//30 60//30 62//30 61//30
f 4//31 2//31 64//31 62//31 60//31 58//31 56//31 54//31 52//31 50//31 48//31 46//31 44//31 42//31 40//31 38//31 36//31 34//31 32//31 30//31 28//31 26//31 24//31 22//31 20//31 18//31 16//31 14//31 12//31 10//31 8//31 6//31
f 61//32 62//32 64//32 63//32
f 63//33 64//33 2//33 1//33
f 1//34 3//34 5//34 7//34 9//34 11//34 13//34 15//34 17//34 19//34 21//34 23//34 25//34 27//34 29//34 31//34 33//34 35//34 37//34 39//34 41//34 43//34 45//34 47//34 49//34 51//34 53//34 55//34 57//34 59//34 61//34 63//34
o Plane
v 0.000000 2.466775 0.983197
v -0.000000 2.500103 -1.016525
v 0.000000 4.466497 1.016525
v -0.000000 4.499825 -0.983197
vt 0.0001 0.0001
vt 0.9999 0.0001
vt 0.9999 0.9618
vt 0.0001 0.9618
vn 1.0000 0.0000 -0.0000
usemtl Material.001
s off
f 65/1/35 66/2/35 68/3/35 67/4/35
